<svg xmlns="http://www.w3.org/2000/svg" viewBox="0 0 291.82 112.03"><defs><style>.cls-1{fill:#575756;}.cls-2{fill:#5bc5f2;}.cls-3{fill:#5c2483;}</style></defs><title>Ativo 1</title><g id="Camada_2" data-name="Camada 2"><g id="Camada_1-2" data-name="Camada 1"><path class="cls-1" d="M139.87,48.31h-8.3V12.36h13.72a22.1,22.1,0,0,1,6,.77A13.63,13.63,0,0,1,156,15.42a10.35,10.35,0,0,1,3,3.75,11.72,11.72,0,0,1,1.06,5.1A10.22,10.22,0,0,1,158,30.89a11.12,11.12,0,0,1-5.8,3.65l8.46,13.77h-9.36l-7-12h-4.36Zm0-19h4.89a13.27,13.27,0,0,0,2.47-.22,6.21,6.21,0,0,0,2.13-.77,3.92,3.92,0,0,0,1.46-1.51,5.06,5.06,0,0,0,.54-2.5,5,5,0,0,0-.54-2.5,4,4,0,0,0-1.46-1.52,6.21,6.21,0,0,0-2.13-.77,14.19,14.19,0,0,0-2.47-.21h-4.89Z"/><path class="cls-1" d="M177,12.36a25.27,25.27,0,0,1,7.79,1.12,16,16,0,0,1,6,3.35,14.69,14.69,0,0,1,3.8,5.61,21.4,21.4,0,0,1,1.33,7.9,21.56,21.56,0,0,1-1.33,8,14.69,14.69,0,0,1-3.8,5.61,15.71,15.71,0,0,1-6,3.32A25.91,25.91,0,0,1,177,48.31H164.09V12.36Zm-4.63,29H177a13.62,13.62,0,0,0,4.23-.62,8.13,8.13,0,0,0,3.24-1.91,8.34,8.34,0,0,0,2.08-3.4,16.35,16.35,0,0,0,.71-5.14,15.8,15.8,0,0,0-.71-5.05,8.54,8.54,0,0,0-2.08-3.4,7.82,7.82,0,0,0-3.24-1.92,14.28,14.28,0,0,0-4.23-.58h-4.63Z"/><path class="cls-1" d="M204.28,12.36V39.59a5,5,0,0,0,1,3.51,4.69,4.69,0,0,0,3.54,1.12h11.8v4.09H208.17c-3.12,0-5.33-.75-6.65-2.26a9.56,9.56,0,0,1-2-6.46V12.36Z"/><path class="cls-1" d="M243.28,12.36l14.31,36h-5.11L249,39.48H232.43l-3.51,8.83h-4.63l14.47-35.95Zm-9.36,23h13.56l-6.75-17.18Z"/><path class="cls-1" d="M271.28,12.36q6.75,0,10,2.55a8.27,8.27,0,0,1,3.27,6.86,8,8,0,0,1-2.08,5.56,7.64,7.64,0,0,1-2,1.6,12,12,0,0,1-2.27.93,11.5,11.5,0,0,1,2.64.87,8.42,8.42,0,0,1,2.34,1.63,7.72,7.72,0,0,1,1.67,2.44,8.14,8.14,0,0,1,.64,3.35,8.65,8.65,0,0,1-3.75,7.5q-3.75,2.67-10.45,2.66H261V12.36ZM265.7,28.05H271a12.22,12.22,0,0,0,6.33-1.41,4.9,4.9,0,0,0,2.34-4.55,4.67,4.67,0,0,0-2.15-4.36,12.45,12.45,0,0,0-6.25-1.27H265.7Zm0,16.17h5.53A13.58,13.58,0,0,0,278,42.78a4.93,4.93,0,0,0,2.52-4.63,5.14,5.14,0,0,0-2.39-4.52A12.39,12.39,0,0,0,271.23,32H265.7Z"/><path class="cls-1" d="M133.33,76.21v5h-1.76V67.84h4.12a5.8,5.8,0,0,1,3.77,1.09,4.24,4.24,0,0,1,.46,5.7,4.23,4.23,0,0,1-2.51,1.28l3.83,5.27h-2l-3.59-5Zm0-1.52h2.36a4.06,4.06,0,0,0,2.38-.63,2.75,2.75,0,0,0,0-4.07,4.06,4.06,0,0,0-2.38-.63h-2.36Z"/><path class="cls-1" d="M153.71,67.84v1.52h-6.22v4.19h5.67v1.51h-5.67v2.88a1.87,1.87,0,0,0,.4,1.31,1.76,1.76,0,0,0,1.3.41H154v1.52H149a3.18,3.18,0,0,1-2.47-.83,3.46,3.46,0,0,1-.74-2.41V67.84Z"/><path class="cls-1" d="M167.22,67.84v1.52h-6.11v4.42h5.56V75.3h-5.56v5.88h-1.76V67.84Z"/><path class="cls-1" d="M180.29,67.84v1.52h-6.22v4.19h5.66v1.51h-5.66v2.88a1.82,1.82,0,0,0,.4,1.31,1.74,1.74,0,0,0,1.3.41h4.81v1.52h-5.05a3.17,3.17,0,0,1-2.47-.83,3.46,3.46,0,0,1-.75-2.41V67.84Z"/><path class="cls-1" d="M187.68,76.21v5h-1.75V67.84h4.12a5.8,5.8,0,0,1,3.77,1.09,3.76,3.76,0,0,1,1.34,3.1,3.72,3.72,0,0,1-.89,2.6,4.2,4.2,0,0,1-2.5,1.28l3.83,5.27h-2l-3.59-5Zm0-1.52h2.37a4.06,4.06,0,0,0,2.38-.63,2.75,2.75,0,0,0,0-4.07,4.06,4.06,0,0,0-2.38-.63h-2.37Z"/><path class="cls-1" d="M208.07,67.84v1.52h-6.22v4.19h5.66v1.51h-5.66v2.88a1.87,1.87,0,0,0,.39,1.31,1.79,1.79,0,0,0,1.31.41h4.81v1.52h-5.05a3.17,3.17,0,0,1-2.47-.83,3.46,3.46,0,0,1-.75-2.41V67.84Zm-3.22-4.32,2,3h-1.36l-1.34-1.77-1.34,1.77H201.4l1.95-3Z"/><path class="cls-1" d="M215.29,67.84l7.81,10.54V67.84h1.68V81.18h-1.56l-7.81-10.52V81.18h-1.7V67.84Z"/><path class="cls-1" d="M230,74.51a8,8,0,0,1,.47-2.82,6.29,6.29,0,0,1,1.34-2.2,6,6,0,0,1,2.12-1.42,7.47,7.47,0,0,1,2.83-.5,10.31,10.31,0,0,1,1.92.17,5.39,5.39,0,0,1,1.5.52v1.56a5.78,5.78,0,0,0-1.49-.54,8.29,8.29,0,0,0-1.83-.19,5.56,5.56,0,0,0-2.09.37,4.36,4.36,0,0,0-1.58,1.08,4.7,4.7,0,0,0-1,1.7,7.34,7.34,0,0,0,0,4.54,4.7,4.7,0,0,0,1,1.71,4.51,4.51,0,0,0,1.59,1.07,5.49,5.49,0,0,0,2.07.38,7.44,7.44,0,0,0,1.85-.23,7.1,7.1,0,0,0,1.6-.62v1.58a8,8,0,0,1-1.54.57,8.17,8.17,0,0,1-2,.22A7.47,7.47,0,0,1,234,81a6,6,0,0,1-3.5-3.62A8,8,0,0,1,230,74.51Z"/><path class="cls-1" d="M247.31,67.84V81.18h-1.76V67.84Z"/><path class="cls-1" d="M258.4,67.84l5.3,13.34h-1.89l-1.3-3.27h-6.14l-1.3,3.27h-1.72l5.37-13.34Zm-3.48,8.55h5L257.45,70Z"/><path class="cls-1" d="M133.33,86.06v10.1a1.9,1.9,0,0,0,.38,1.3,1.73,1.73,0,0,0,1.31.41h4.38v1.52h-4.63a3.17,3.17,0,0,1-2.47-.83,3.58,3.58,0,0,1-.73-2.4V86.06Z"/><path class="cls-1" d="M148.76,86.06l5.3,13.33h-1.89l-1.3-3.27h-6.14l-1.3,3.27h-1.72l5.37-13.33Zm-3.48,8.54h5l-2.5-6.37Z"/><path class="cls-1" d="M161.94,86.06a6,6,0,0,1,3.72.94,3.08,3.08,0,0,1,1.21,2.55,2.89,2.89,0,0,1-.22,1.18,3,3,0,0,1-.55.88,2.88,2.88,0,0,1-.76.59,4.28,4.28,0,0,1-.84.35,4,4,0,0,1,1,.32,3.46,3.46,0,0,1,.87.6,3.12,3.12,0,0,1,.62.91,3,3,0,0,1,.23,1.25,3.21,3.21,0,0,1-1.39,2.78,6.65,6.65,0,0,1-3.87,1h-3.83V86.06Zm-2.08,5.82h2a4.54,4.54,0,0,0,2.35-.53,1.82,1.82,0,0,0,.86-1.68,1.7,1.7,0,0,0-.8-1.62,4.52,4.52,0,0,0-2.31-.48h-2.06Zm0,6h2.06a5,5,0,0,0,2.49-.53,1.81,1.81,0,0,0,.94-1.71,1.9,1.9,0,0,0-.89-1.68,4.52,4.52,0,0,0-2.54-.59h-2.06Z"/><path class="cls-1" d="M185.16,92.72a8,8,0,0,1-.5,2.89,6.29,6.29,0,0,1-1.42,2.18,6.36,6.36,0,0,1-2.18,1.39,8.3,8.3,0,0,1-5.62,0,6.08,6.08,0,0,1-3.59-3.57,8.57,8.57,0,0,1,0-5.77,6.08,6.08,0,0,1,3.59-3.57,8.3,8.3,0,0,1,5.62,0,6.36,6.36,0,0,1,2.18,1.39,6.29,6.29,0,0,1,1.42,2.18A8,8,0,0,1,185.16,92.72Zm-1.84,0a6.78,6.78,0,0,0-.34-2.23,4.68,4.68,0,0,0-1-1.71,4.44,4.44,0,0,0-1.6-1.1,6.16,6.16,0,0,0-4.26,0,4.53,4.53,0,0,0-1.6,1.1,4.81,4.81,0,0,0-1,1.71,7.31,7.31,0,0,0,0,4.47,4.81,4.81,0,0,0,1,1.71,4.53,4.53,0,0,0,1.6,1.1,6.16,6.16,0,0,0,4.26,0,4.44,4.44,0,0,0,1.6-1.1A4.68,4.68,0,0,0,183,95,6.8,6.8,0,0,0,183.32,92.72Z"/><path class="cls-1" d="M192.14,94.42v5h-1.75V86.06h4.12a5.88,5.88,0,0,1,3.77,1.08,3.77,3.77,0,0,1,1.34,3.1,3.73,3.73,0,0,1-.89,2.6,4.27,4.27,0,0,1-2.5,1.29l3.82,5.26h-2l-3.59-5Zm0-1.52h2.37a4.06,4.06,0,0,0,2.38-.63,2.74,2.74,0,0,0,0-4.06,4.06,4.06,0,0,0-2.38-.64h-2.37Z"/><path class="cls-1" d="M209.58,86.06l5.31,13.33H213l-1.3-3.27h-6.14l-1.3,3.27h-1.72l5.37-13.33Zm-3.47,8.54h5l-2.5-6.37Z"/><path class="cls-1" d="M226.41,86.06v1.51h-4.49V99.39h-1.76V87.57h-4.5V86.06Z"/><path class="cls-1" d="M242.38,92.72a7.79,7.79,0,0,1-.51,2.89,6.13,6.13,0,0,1-1.41,2.18,6.36,6.36,0,0,1-2.18,1.39,8.3,8.3,0,0,1-5.62,0,6.36,6.36,0,0,1-2.18-1.39,6.13,6.13,0,0,1-1.41-2.18,8.57,8.57,0,0,1,0-5.77,6.13,6.13,0,0,1,1.41-2.18,6.36,6.36,0,0,1,2.18-1.39,8.3,8.3,0,0,1,5.62,0,6.36,6.36,0,0,1,2.18,1.39,6.13,6.13,0,0,1,1.41,2.18A7.77,7.77,0,0,1,242.38,92.72Zm-1.84,0a6.78,6.78,0,0,0-.34-2.23,4.83,4.83,0,0,0-1-1.71,4.44,4.44,0,0,0-1.6-1.1,6.16,6.16,0,0,0-4.26,0,4.53,4.53,0,0,0-1.6,1.1,4.81,4.81,0,0,0-1,1.71,7.31,7.31,0,0,0,0,4.47,4.81,4.81,0,0,0,1,1.71,4.53,4.53,0,0,0,1.6,1.1,6.16,6.16,0,0,0,4.26,0,4.44,4.44,0,0,0,1.6-1.1,4.83,4.83,0,0,0,1-1.71A6.8,6.8,0,0,0,240.54,92.72Z"/><path class="cls-1" d="M249.36,94.42v5H247.6V86.06h4.13a5.88,5.88,0,0,1,3.77,1.08,3.77,3.77,0,0,1,1.34,3.1,3.73,3.73,0,0,1-.89,2.6,4.3,4.3,0,0,1-2.51,1.29l3.83,5.26h-2l-3.59-5Zm0-1.52h2.37a4.09,4.09,0,0,0,2.38-.63,2.76,2.76,0,0,0,0-4.06,4.09,4.09,0,0,0-2.38-.64h-2.37Z"/><path class="cls-1" d="M263.7,86.06V99.39H262V86.06Z"/><path class="cls-1" d="M274.79,86.06l5.31,13.33h-1.89l-1.31-3.27h-6.13l-1.3,3.27h-1.72l5.37-13.33Zm-3.47,8.54h5l-2.5-6.37Z"/><path class="cls-1" d="M285.74,86.06v10.1a1.85,1.85,0,0,0,.39,1.3,1.7,1.7,0,0,0,1.31.41h4.38v1.52h-4.64a3.16,3.16,0,0,1-2.46-.83,3.53,3.53,0,0,1-.73-2.4V86.06Z"/><circle class="cls-2" cx="79.25" cy="32.85" r="9.76"/><circle class="cls-2" cx="35.94" cy="79.27" r="9.76"/><path class="cls-3" d="M47.54,49.11a9.77,9.77,0,0,0-13.81,0,10.21,10.21,0,0,0-1.37,1.73h0a10.12,10.12,0,0,1-14.32,0h0a10.11,10.11,0,0,0-1.37-1.73A9.79,9.79,0,1,0,18,61.19v.05a10.12,10.12,0,0,1,14.32,0v-.05a10.21,10.21,0,0,0,1.37,1.73A9.77,9.77,0,0,0,47.54,49.11Z"/><path class="cls-3" d="M109.31,49.11a9.77,9.77,0,0,0-13.81,0,10.21,10.21,0,0,0-1.37,1.73h0a10.12,10.12,0,0,1-14.32,0h0a10.11,10.11,0,0,0-1.37-1.73,9.79,9.79,0,1,0,1.37,12.08v.05a10.12,10.12,0,0,1,14.32,0v-.05a10.21,10.21,0,0,0,1.37,1.73,9.77,9.77,0,0,0,13.81-13.81Z"/><path class="cls-3" d="M34.17,41.38a9.76,9.76,0,0,0,9.76-9.77,9.57,9.57,0,0,0-.28-2.29l.24.24A10.13,10.13,0,0,1,54,19.43l-.19-.19a9.91,9.91,0,0,0,2.33.29,9.77,9.77,0,1,0-9.77-9.77,9.36,9.36,0,0,0,.3,2.33h0A10.12,10.12,0,0,1,36.73,22.2a9.76,9.76,0,1,0-2.56,19.18Z"/><path class="cls-3" d="M78,70.65a9.77,9.77,0,0,0-9.77,9.77,10,10,0,0,0,.29,2.33v0a10.12,10.12,0,0,1-9.94,10.12,9.76,9.76,0,1,0,7.2,9.42,9.66,9.66,0,0,0-.28-2.3l.24.24A10.13,10.13,0,0,1,75.87,90.08l-.19-.19a9.35,9.35,0,0,0,2.33.29,9.77,9.77,0,0,0,0-19.53Z"/></g></g></svg>