<svg xmlns="http://www.w3.org/2000/svg" viewBox="0 0 160.25 218.87"><title>Ativo 1</title><g id="f374338d-0f16-47c8-92fc-e50b068b27eb" data-name="Camada 2"><g id="b1c820c2-fab8-4146-8902-fcb9f8282050" data-name="Camada 1"><path d="M11.47,167.51H3.17V131.56H16.89a22.1,22.1,0,0,1,6,.77,13.49,13.49,0,0,1,4.65,2.29,10.28,10.28,0,0,1,3,3.75,11.72,11.72,0,0,1,1.06,5.1,10.26,10.26,0,0,1-2.07,6.63,11.17,11.17,0,0,1-5.8,3.64l8.46,13.77H22.85l-7-12H11.47Zm0-19h4.89a13.35,13.35,0,0,0,2.47-.22,6.21,6.21,0,0,0,2.13-.77A3.92,3.92,0,0,0,22.42,146a6.16,6.16,0,0,0,0-5A4,4,0,0,0,21,139.51a6.21,6.21,0,0,0-2.13-.77,14.28,14.28,0,0,0-2.47-.21H11.47Z" style="fill:#fff"/><path d="M48.61,131.56a25.27,25.27,0,0,1,7.79,1.12,16,16,0,0,1,6,3.35,14.8,14.8,0,0,1,3.8,5.61,24.28,24.28,0,0,1,0,15.85,14.8,14.8,0,0,1-3.8,5.61,15.71,15.71,0,0,1-6,3.32,25.91,25.91,0,0,1-7.79,1.09H35.69V131.56Zm-4.63,29h4.63a13.62,13.62,0,0,0,4.23-.62A8.2,8.2,0,0,0,56.08,158a8.32,8.32,0,0,0,2.07-3.4,16,16,0,0,0,.72-5.14,15.51,15.51,0,0,0-.72-5,8.53,8.53,0,0,0-2.07-3.4,7.88,7.88,0,0,0-3.24-1.92,14.28,14.28,0,0,0-4.23-.58H44Z" style="fill:#fff"/><path d="M75.88,131.56v27.23a5,5,0,0,0,1,3.51,4.69,4.69,0,0,0,3.54,1.12h11.8v4.09H79.76q-4.67,0-6.64-2.26a9.54,9.54,0,0,1-2-6.46V131.56Z" style="fill:#fff"/><path d="M114.88,131.56l14.3,35.95h-5.1l-3.51-8.83H104l-3.51,8.83H95.89l14.47-35.95Zm-9.36,23h13.56l-6.75-17.18Z" style="fill:#fff"/><path d="M142.88,131.56q6.75,0,10,2.55a8.91,8.91,0,0,1,2.69,10.06,8.12,8.12,0,0,1-1.49,2.36,7.53,7.53,0,0,1-2,1.6,11,11,0,0,1-2.26.93,12,12,0,0,1,2.64.87,9,9,0,0,1,2.34,1.63,7.72,7.72,0,0,1,1.67,2.44,8.14,8.14,0,0,1,.64,3.35,8.65,8.65,0,0,1-3.75,7.5q-3.75,2.67-10.45,2.66H132.56V131.56Zm-5.58,15.69h5.26a12.22,12.22,0,0,0,6.33-1.41,4.9,4.9,0,0,0,2.34-4.55,4.67,4.67,0,0,0-2.15-4.36,12.45,12.45,0,0,0-6.25-1.27H137.3Zm0,16.17h5.53a13.51,13.51,0,0,0,6.72-1.44,4.92,4.92,0,0,0,2.53-4.63,5.14,5.14,0,0,0-2.39-4.52,12.41,12.41,0,0,0-6.86-1.59H137.3Z" style="fill:#fff"/><path d="M16.12,195.41v5H14.36V187h4.13a5.84,5.84,0,0,1,3.77,1.09,4.25,4.25,0,0,1,.45,5.7,4.23,4.23,0,0,1-2.51,1.28L24,200.38H22l-3.59-5Zm0-1.52h2.37a4,4,0,0,0,2.37-.63,2.75,2.75,0,0,0,0-4.07,4,4,0,0,0-2.37-.63H16.12Z" style="fill:#fff"/><path d="M36.5,187v1.52H30.29v4.19H36v1.51H30.29v2.89a1.85,1.85,0,0,0,.39,1.3,1.76,1.76,0,0,0,1.3.41H36.8v1.52h-5a3.17,3.17,0,0,1-2.48-.83,3.5,3.5,0,0,1-.74-2.4V187Z" style="fill:#fff"/><path d="M50,187v1.52H43.9V193h5.56v1.52H43.9v5.88H42.14V187Z" style="fill:#fff"/><path d="M63.08,187v1.52H56.86v4.19h5.66v1.51H56.86v2.89a1.81,1.81,0,0,0,.4,1.3,1.74,1.74,0,0,0,1.3.41h4.81v1.52h-5a3.15,3.15,0,0,1-2.47-.83,3.45,3.45,0,0,1-.74-2.4V187Z" style="fill:#fff"/><path d="M70.48,195.41v5H68.72V187h4.12a5.8,5.8,0,0,1,3.77,1.09,4.27,4.27,0,0,1,.46,5.7,4.26,4.26,0,0,1-2.51,1.28l3.83,5.27h-2l-3.6-5Zm0-1.52h2.36a4.06,4.06,0,0,0,2.38-.63,2.75,2.75,0,0,0,0-4.07,4.06,4.06,0,0,0-2.38-.63H70.48Z" style="fill:#fff"/><path d="M90.86,187v1.52H84.64v4.19H90.3v1.51H84.64v2.89a1.81,1.81,0,0,0,.4,1.3,1.74,1.74,0,0,0,1.3.41h4.81v1.52H86.1a3.15,3.15,0,0,1-2.47-.83,3.45,3.45,0,0,1-.74-2.4V187Zm-3.22-4.32,2,3H88.23l-1.34-1.77-1.34,1.77H84.19l2-3Z" style="fill:#fff"/><path d="M98.08,187l7.81,10.54V187h1.68v13.34H106L98.2,189.86v10.52H96.5V187Z" style="fill:#fff"/><path d="M112.8,193.71a8.26,8.26,0,0,1,.47-2.82,6.44,6.44,0,0,1,1.34-2.2,6,6,0,0,1,2.12-1.42,7.69,7.69,0,0,1,2.84-.5,10.28,10.28,0,0,1,1.91.17,5.39,5.39,0,0,1,1.5.52V189a6.18,6.18,0,0,0-1.49-.54,8.22,8.22,0,0,0-1.83-.19,5.56,5.56,0,0,0-2.09.37,4.36,4.36,0,0,0-1.58,1.08,4.7,4.7,0,0,0-1,1.7,7.34,7.34,0,0,0,0,4.54,4.7,4.7,0,0,0,1,1.71,4.38,4.38,0,0,0,1.59,1.07,5.49,5.49,0,0,0,2.07.38,7.38,7.38,0,0,0,3.46-.85v1.58a7.5,7.5,0,0,1-1.55.57,8.17,8.17,0,0,1-2,.22,7.47,7.47,0,0,1-2.83-.51,5.94,5.94,0,0,1-2.14-1.42,6.24,6.24,0,0,1-1.36-2.2A8.18,8.18,0,0,1,112.8,193.71Z" style="fill:#fff"/><path d="M130.1,187v13.34h-1.76V187Z" style="fill:#fff"/><path d="M141.19,187l5.31,13.34h-1.9l-1.3-3.27h-6.14l-1.3,3.27h-1.71L139.51,187Zm-3.47,8.55h5l-2.51-6.38Z" style="fill:#fff"/><path d="M1.76,205.26v10.1a1.85,1.85,0,0,0,.38,1.3,1.72,1.72,0,0,0,1.31.41H7.83v1.52H3.2a3.17,3.17,0,0,1-2.47-.83,3.53,3.53,0,0,1-.73-2.4v-10.1Z" style="fill:#fff"/><path d="M17.18,205.26l5.31,13.33H20.6l-1.3-3.27H13.16l-1.3,3.27H10.14l5.37-13.33Zm-3.47,8.54h5l-2.5-6.37Z" style="fill:#fff"/><path d="M30.36,205.26a6,6,0,0,1,3.72.94,3.07,3.07,0,0,1,1.22,2.55,2.89,2.89,0,0,1-.22,1.18,3,3,0,0,1-.55.88,3.05,3.05,0,0,1-.76.59,4.55,4.55,0,0,1-.84.35,4.16,4.16,0,0,1,1,.32,3.24,3.24,0,0,1,.86.6,3.08,3.08,0,0,1,.63.91,3.48,3.48,0,0,1-1.16,4,6.61,6.61,0,0,1-3.88,1H26.54V205.26Zm-2.07,5.82h2a4.48,4.48,0,0,0,2.34-.53,1.8,1.8,0,0,0,.87-1.68,1.7,1.7,0,0,0-.8-1.62,4.55,4.55,0,0,0-2.32-.47H28.29Zm0,6h2.05a5,5,0,0,0,2.5-.53,1.81,1.81,0,0,0,.94-1.71,1.9,1.9,0,0,0-.89-1.68,4.54,4.54,0,0,0-2.55-.59H28.29Z" style="fill:#fff"/><path d="M53.59,211.93a7.77,7.77,0,0,1-.51,2.88A6.13,6.13,0,0,1,51.67,217a6.36,6.36,0,0,1-2.18,1.39,8.3,8.3,0,0,1-5.62,0A6.36,6.36,0,0,1,41.69,217a6.13,6.13,0,0,1-1.41-2.18,8.57,8.57,0,0,1,0-5.77,6.13,6.13,0,0,1,1.41-2.18,6.36,6.36,0,0,1,2.18-1.39,8.3,8.3,0,0,1,5.62,0,6.36,6.36,0,0,1,2.18,1.39A6.13,6.13,0,0,1,53.08,209,7.79,7.79,0,0,1,53.59,211.93Zm-1.84,0a6.8,6.8,0,0,0-.34-2.24,4.83,4.83,0,0,0-1-1.71,4.44,4.44,0,0,0-1.6-1.1,6.16,6.16,0,0,0-4.26,0A4.53,4.53,0,0,0,43,208a4.81,4.81,0,0,0-1,1.71,7.31,7.31,0,0,0,0,4.47,4.81,4.81,0,0,0,1,1.71,4.53,4.53,0,0,0,1.6,1.1,6.16,6.16,0,0,0,4.26,0,4.44,4.44,0,0,0,1.6-1.1,4.83,4.83,0,0,0,1-1.71A6.78,6.78,0,0,0,51.75,211.93Z" style="fill:#fff"/><path d="M60.57,213.62v5H58.82V205.26h4.12a5.88,5.88,0,0,1,3.77,1.08,3.78,3.78,0,0,1,1.34,3.1,3.73,3.73,0,0,1-.89,2.6,4.3,4.3,0,0,1-2.5,1.29l3.82,5.26h-2l-3.59-5Zm0-1.52h2.37a4.06,4.06,0,0,0,2.38-.63,2.76,2.76,0,0,0,0-4.06,4.06,4.06,0,0,0-2.38-.63H60.57Z" style="fill:#fff"/><path d="M78,205.26l5.31,13.33H81.43l-1.31-3.27H74l-1.3,3.27H71l5.37-13.33Zm-3.47,8.54h5l-2.5-6.37Z" style="fill:#fff"/><path d="M94.84,205.26v1.52h-4.5v11.81H88.59V206.78h-4.5v-1.52Z" style="fill:#fff"/><path d="M110.81,211.93a7.77,7.77,0,0,1-.51,2.88,6.13,6.13,0,0,1-1.41,2.18,6.36,6.36,0,0,1-2.18,1.39,8.3,8.3,0,0,1-5.62,0A6.36,6.36,0,0,1,98.91,217a6.13,6.13,0,0,1-1.41-2.18,8.42,8.42,0,0,1,0-5.77,6.13,6.13,0,0,1,1.41-2.18,6.36,6.36,0,0,1,2.18-1.39,8.3,8.3,0,0,1,5.62,0,6.36,6.36,0,0,1,2.18,1.39A6.13,6.13,0,0,1,110.3,209,7.79,7.79,0,0,1,110.81,211.93Zm-1.84,0a6.79,6.79,0,0,0-.35-2.24,4.81,4.81,0,0,0-1-1.71,4.53,4.53,0,0,0-1.6-1.1,6.16,6.16,0,0,0-4.26,0,4.44,4.44,0,0,0-1.6,1.1,4.83,4.83,0,0,0-1,1.71,7.52,7.52,0,0,0,0,4.47,4.83,4.83,0,0,0,1,1.71,4.44,4.44,0,0,0,1.6,1.1,6.16,6.16,0,0,0,4.26,0,4.53,4.53,0,0,0,1.6-1.1,4.81,4.81,0,0,0,1-1.71A6.78,6.78,0,0,0,109,211.93Z" style="fill:#fff"/><path d="M117.79,213.62v5H116V205.26h4.13a5.89,5.89,0,0,1,3.77,1.08,3.78,3.78,0,0,1,1.34,3.1,3.73,3.73,0,0,1-.89,2.6,4.3,4.3,0,0,1-2.51,1.29l3.83,5.26h-2l-3.59-5Zm0-1.52h2.37a4,4,0,0,0,2.37-.63,2.74,2.74,0,0,0,0-4.06,4,4,0,0,0-2.37-.63h-2.37Z" style="fill:#fff"/><path d="M132.13,205.26v13.33h-1.75V205.26Z" style="fill:#fff"/><path d="M143.22,205.26l5.31,13.33h-1.89l-1.31-3.27H139.2l-1.31,3.27h-1.71l5.36-13.33Zm-3.47,8.54h5l-2.51-6.37Z" style="fill:#fff"/><path d="M154.17,205.26v10.1a1.85,1.85,0,0,0,.39,1.3,1.7,1.7,0,0,0,1.31.41h4.38v1.52h-4.64a3.16,3.16,0,0,1-2.46-.83,3.53,3.53,0,0,1-.73-2.4v-10.1Z" style="fill:#fff"/><path d="M52.24,61.19a10.21,10.21,0,0,0,1.37,1.73,9.77,9.77,0,1,0,0-13.81,10.21,10.21,0,0,0-1.37,1.73h0a10.12,10.12,0,0,1-14.32,0h0a10.62,10.62,0,0,0-1.37-1.73,9.77,9.77,0,1,0,0,13.81,10.21,10.21,0,0,0,1.37-1.73v.05a10.12,10.12,0,0,1,14.32,0Z" style="fill:#fff"/><path d="M129.19,49.11a9.77,9.77,0,0,0-13.81,0A10.21,10.21,0,0,0,114,50.84h0a10.12,10.12,0,0,1-14.32,0h0a10.62,10.62,0,0,0-1.37-1.73,9.77,9.77,0,1,0,0,13.81,10.21,10.21,0,0,0,1.37-1.73v.05a10.12,10.12,0,0,1,14.32,0v-.05a10.21,10.21,0,0,0,1.37,1.73,9.77,9.77,0,0,0,13.81-13.81Z" style="fill:#fff"/><path d="M99.13,42.62a9.77,9.77,0,1,0-9.77-9.77A9.76,9.76,0,0,0,99.13,42.62Z" style="fill:#fff"/><circle cx="55.82" cy="79.26" r="9.76" transform="translate(-39.7 62.69) rotate(-45)" style="fill:#fff"/><path d="M54.05,41.38a9.76,9.76,0,0,0,9.76-9.77,9.57,9.57,0,0,0-.28-2.29l.24.24A10.12,10.12,0,0,1,73.9,19.43l-.19-.19a9.91,9.91,0,0,0,2.33.29,9.81,9.81,0,1,0-9.48-7.44h0A10.12,10.12,0,0,1,56.61,22.2a9.76,9.76,0,1,0-2.56,19.18Z" style="fill:#fff"/><path d="M97.88,70.65a9.77,9.77,0,0,0-9.76,9.77,10,10,0,0,0,.29,2.33v0a10.13,10.13,0,0,1-9.94,10.12,9.9,9.9,0,0,0-2.57-.35,9.77,9.77,0,1,0,9.77,9.77,10.2,10.2,0,0,0-.28-2.3l.24.24A10.13,10.13,0,0,1,95.75,90.08l-.2-.19a9.47,9.47,0,0,0,2.33.29,9.77,9.77,0,1,0,0-19.53Z" style="fill:#fff"/></g></g></svg>