<svg 
 xmlns="http://www.w3.org/2000/svg"
 xmlns:xlink="http://www.w3.org/1999/xlink"
 width="1920px" height="279px">
<path fill-rule="evenodd"  fill="rgb(249, 249, 249)"
 d="M0.000,0.317 L1920.000,0.317 L1920.000,68.993 C1920.000,68.993 1904.768,82.056 1864.210,121.690 C1818.309,162.795 1795.394,182.823 1704.236,225.836 C1622.705,261.796 1537.050,273.821 1448.515,267.926 C1375.000,264.539 1293.071,240.583 1179.939,246.157 C1095.961,249.536 1075.000,268.076 917.475,276.222 C783.108,280.018 795.385,286.854 579.138,229.987 C490.418,207.610 456.476,220.799 384.429,212.255 C294.620,203.961 297.106,200.349 177.937,193.804 C47.649,182.369 0.000,14.950 0.000,14.950 L0.000,0.317 Z"/>
</svg>