<svg 
 xmlns="http://www.w3.org/2000/svg"
 xmlns:xlink="http://www.w3.org/1999/xlink"
 width="1920px" height="684px">
<path fill-rule="evenodd"  fill="rgb(255, 255, 255)"
 d="M0.000,-0.000 L1920.000,-0.000 L1920.000,477.993 C1920.000,477.993 1907.002,617.592 1774.210,582.690 C1734.711,571.720 1661.943,556.238 1534.236,593.836 C1450.026,615.515 1391.666,664.738 1198.515,661.926 C1070.479,661.551 979.719,663.201 891.939,680.157 C870.700,683.616 838.121,692.640 747.475,654.222 C684.967,625.724 645.000,604.515 622.004,610.424 C585.853,622.864 537.885,606.528 532.615,580.677 C531.707,569.084 526.622,528.738 489.138,529.451 C445.000,515.838 430.781,542.974 374.429,487.255 C285.767,405.602 233.693,160.701 128.937,163.804 C15.183,167.647 0.000,25.021 0.000,25.021 L0.000,-0.000 Z"/>
</svg>