<svg 
 xmlns="http://www.w3.org/2000/svg"
 xmlns:xlink="http://www.w3.org/1999/xlink"
 width="1920px" height="210px">
<path fill-rule="evenodd"  fill="rgb(249, 249, 249)"
 d="M1920.000,210.000 L0.000,210.000 L0.000,202.000 C0.000,202.000 11.263,156.379 65.790,117.227 C115.313,80.746 186.683,76.972 245.764,96.062 C324.191,122.211 422.093,110.750 491.485,96.973 C614.895,71.881 662.281,50.656 750.061,33.685 C810.240,17.875 931.879,25.194 1022.525,63.647 C1175.000,108.007 1175.318,3.977 1340.862,0.825 C1415.612,-0.598 1476.111,82.017 1545.571,92.640 C1636.932,118.030 1645.982,188.184 1822.063,193.181 C1919.238,187.020 1920.000,91.945 1920.000,91.945 L1920.000,210.000 Z"/>
</svg>