<?xml version="1.0" standalone="no"?>
<!DOCTYPE svg PUBLIC "-//W3C//DTD SVG 20010904//EN"
 "http://www.w3.org/TR/2001/REC-SVG-20010904/DTD/svg10.dtd">
<svg version="1.0" xmlns="http://www.w3.org/2000/svg"
 width="300.000000pt" height="300.000000pt" viewBox="0 0 300.000000 300.000000"
 preserveAspectRatio="xMidYMid meet">
<metadata>
Created by potrace 1.11, written by Peter Selinger 2001-2013
</metadata>
<g transform="translate(0.000000,300.000000) scale(0.100000,-0.100000)"
fill="#000000" stroke="none">
<path d="M1440 2970 c-72 -20 -125 -65 -163 -135 -17 -33 -21 -58 -22 -141 -2
-113 -19 -163 -77 -224 -54 -55 -108 -73 -223 -75 -82 -1 -108 -5 -141 -22
-53 -28 -99 -74 -121 -121 -25 -51 -25 -174 0 -223 78 -157 292 -194 414 -73
57 58 73 101 78 211 5 109 28 165 88 224 50 47 117 71 200 70 97 -1 161 22
216 77 160 160 56 430 -168 438 -31 1 -67 -2 -81 -6z"/>
<path d="M2037 2353 c-109 -32 -188 -159 -173 -276 18 -129 110 -215 242 -225
101 -7 197 48 246 141 34 65 31 176 -6 239 -66 113 -183 159 -309 121z"/>
<path d="M213 1745 c-92 -28 -149 -83 -179 -174 -39 -120 22 -259 136 -309 49
-22 59 -24 116 -24 72 0 134 30 197 96 66 69 131 100 209 98 79 -1 135 -29
211 -104 51 -52 75 -68 118 -80 131 -37 257 20 312 142 77 170 -47 362 -233
362 -79 0 -142 -30 -210 -101 -86 -90 -167 -114 -279 -83 -42 12 -66 28 -115
78 -35 34 -81 71 -104 83 -51 26 -124 33 -179 16z"/>
<path d="M1854 1747 c-85 -26 -148 -80 -178 -152 -60 -143 23 -311 174 -350
98 -25 188 3 261 82 54 59 82 77 145 95 98 29 176 6 257 -73 76 -74 125 -101
194 -104 111 -6 202 45 247 138 65 131 22 273 -103 340 -69 38 -170 40 -238 3
-29 -15 -86 -66 -100 -89 -27 -44 -129 -84 -204 -81 -79 3 -133 34 -212 122
-54 60 -167 92 -243 69z"/>
<path d="M895 1126 c-154 -56 -221 -217 -151 -360 48 -98 157 -157 263 -142
169 23 272 202 204 357 -40 93 -121 150 -220 154 -36 1 -80 -3 -96 -9z"/>
<path d="M2025 1101 c-85 -22 -157 -89 -184 -171 -12 -38 -13 -55 -11 -148 3
-102 -53 -189 -149 -234 -37 -17 -67 -22 -146 -23 -127 -2 -172 -21 -234 -99
-100 -126 -57 -310 92 -388 59 -31 165 -31 224 0 99 52 140 123 147 253 5 106
12 135 44 179 65 90 129 121 256 122 94 1 157 27 209 88 138 162 38 409 -172
425 -25 2 -59 0 -76 -4z"/>
</g>
</svg>
