<svg id="Layer_3" enable-background="new 0 0 64 64" height="512" viewBox="0 0 64 64" width="512" xmlns="http://www.w3.org/2000/svg"><g><path fill="#767675" d="m30 1h-22c-.553 0-1 .448-1 1v6c0 .552.447 1 1 1h1v44c0 5.514 4.486 10 10 10s10-4.486 10-10v-44h1c.553 0 1-.448 1-1v-6c0-.552-.447-1-1-1zm-11 60c-4.411 0-8-3.589-8-8v-32.586l1-1c.535-.535 1.465-.535 2 0l.586.586c1.291 1.289 3.537 1.29 4.828 0l.586-.585c.535-.535 1.465-.535 2 0l.586.585c.646.645 1.503 1 2.414 1 .73 0 1.42-.237 2-.66v2.66h-9v2h9v2h-7v2h7v2h-7v2h7v2h-7v2h7v2h-9v2h9v2h-7v2h7v2h-7v2h7v2h-7v2h7c0 .692-.097 1.359-.263 2h-8.737v2h7.918c-1.386 2.387-3.965 4-6.918 4zm8-43.414-1 1c-.535.535-1.465.535-2 0l-.586-.586c-1.291-1.289-3.537-1.29-4.828 0l-.586.585c-.535.535-1.465.535-2 0l-.586-.585c-1.164-1.162-3.097-1.267-4.414-.333v-8.667h16zm2-10.586h-20v-4h20z"/><path fill="#767675" d="m56 1h-22c-.553 0-1 .448-1 1v6c0 .552.447 1 1 1h1v44c0 5.514 4.486 10 10 10s10-4.486 10-10v-44h1c.553 0 1-.448 1-1v-6c0-.552-.447-1-1-1zm-11 60c-4.411 0-8-3.589-8-8v-15.586l1-1c.535-.533 1.465-.533 2 0l.586.586c1.289 1.289 3.539 1.289 4.828 0l.586-.586c.535-.533 1.465-.533 2 0l.586.586c.645.645 1.502 1 2.414 1 .731 0 1.421-.237 2-.66v1.66h-9v2h9v2h-7v2h7v2h-7v2h7v2h-7v2h7c0 .692-.097 1.359-.263 2h-8.737v2h7.918c-1.386 2.387-3.965 4-6.918 4zm8-38h-9v2h9v2h-7v2h7v2h-7v2h7v1.586l-1 1c-.535.533-1.465.533-2 0l-.586-.586c-1.289-1.289-3.539-1.289-4.828 0l-.586.586c-.535.533-1.465.533-2 0l-.586-.586c-1.162-1.162-3.098-1.267-4.414-.334v-25.666h16zm2-16h-20v-4h20z"/></g></svg>