<svg height="511pt" viewBox="0 -15 511.997 511" width="511pt" xmlns="http://www.w3.org/2000/svg"><path fill="#434343" d="m492.359375 158.082031h-38.699219l-15.863281-20.078125c-2.570313-3.25-7.285156-3.800781-10.535156-1.234375-3.25 2.570313-3.804688 7.285157-1.234375 10.535157l8.351562 10.570312-59.765625-.464844c-6.59375-8.214844-27.167969-33.839844-34.066406-42.429687 3.121094-2.816407 10.917969-18.769531 30.300781-18.542969 9.582032.074219 18.488282 4.429688 24.429688 11.949219l10.800781 13.671875c2.566406 3.25 7.285156 3.800781 10.535156 1.234375 3.25-2.570313 3.804688-7.285157 1.234375-10.535157l-10.800781-13.671874c-8.855469-11.207032-22.164063-17.648438-36.453125-17.648438-26.199219 0-37.953125 20.15625-39.648438 21.582031l-27.707031-34.511719c-24.273437-30.234374-70.25-30.175781-94.472656 0l-27.699219 34.496094-3.238281-4.101562c-18.433594-23.328125-53.683594-23.550782-72.433594-.5625l-48.730469 59.742187h-37.023437c-10.828125 0-19.640625 8.8125-19.640625 19.640625v10.371094c0 10.832031 8.8125 19.640625 19.640625 19.640625h8.140625l40.699219 141.851563c1.140625 3.980468 5.296875 6.28125 9.277343 5.140624 3.980469-1.144531 6.28125-5.296874 5.140626-9.277343l-39.511719-137.710938h425.226562l-52.179687 181.851563c-2.625 9.15625-9.28125 16.5625-17.804688 20.292968-6.035156-26.4375-29.757812-45.578124-57.160156-45.578124-28.550781 0-52.753906 20.570312-57.710938 48.210937h-55.519531c-5.003906-27.933594-29.457031-48.210937-57.707031-48.210937h-.003906c-27.378906.003906-51.121094 19.125-57.15625 45.578124-8.523438-3.730468-15.179688-11.136718-17.808594-20.292968l-5.421875-18.894532c-1.140625-3.984374-5.296875-6.28125-9.277344-5.140624-3.980469 1.140624-6.28125 5.292968-5.140625 9.277343l5.421875 18.894531c4.328125 15.082032 16.082031 26.945313 30.804688 31.621094 1.269531 31.222656 27.054687 56.234375 58.582031 56.234375 30.792969 0 56.101562-23.863281 58.445312-54.070312h54.042969c2.34375 30.207031 27.652344 54.070312 58.445313 54.070312 31.527344 0 57.3125-25.011719 58.582031-56.234375 14.722656-4.675781 26.476563-16.539062 30.804687-31.621094l53.363282-185.992187h8.140625c10.832031 0 19.640625-8.808594 19.640625-19.640625v-10.371094c.003906-10.828125-8.808594-19.640625-19.636719-19.640625zm-321.828125 308.503907c-25.035156 0-45.226562-21.195313-43.527344-46.578126 0-.007812 0-.015624.003906-.027343 1.527344-22.816407 20.648438-40.667969 43.511719-40.675781h.011719c23.984375 0 43.640625 19.484374 43.640625 43.640624 0 24.0625-19.578125 43.640626-43.640625 43.640626zm170.9375 0c-24.0625 0-43.640625-19.578126-43.640625-43.640626 0-24.128906 19.636719-43.640624 43.640625-43.640624 23.960938 0 43.640625 19.542968 43.640625 43.640624 0 24.0625-19.578125 43.640626-43.640625 43.640626zm-121.007812-388.6875c18.261718-22.746094 52.855468-22.703126 71.078124 0 15.8125 19.695312 49.507813 61.664062 64.308594 80.097656h-199.695312c5.75-7.164063 57.851562-72.058594 64.308594-80.097656zm-103.445313 29.925781c6.058594-7.429688 15.058594-11.683594 24.613281-11.570313 9.582032.074219 18.484375 4.429688 24.425782 11.949219l5.375 6.804687-24.785157 30.871094-9.0625 11.289063-60.433593-.46875zm379.984375 80.273437c0 2.558594-2.082031 4.640625-4.640625 4.640625-21.617187 0-449.640625 0-472.71875 0-2.558594 0-4.640625-2.082031-4.640625-4.640625v-10.375c0-2.558594 2.082031-4.640625 4.640625-4.640625h472.71875c2.558594 0 4.640625 2.082031 4.640625 4.640625zm0 0"/><path fill="#434343" d="m293.640625 236.554688c-1.308594-2.429688-3.84375-3.941407-6.601563-3.941407h-43.066406c-2.75 0-5.285156 1.507813-6.59375 3.929688l-34.332031 63.414062c-1.257813 2.324219-1.199219 5.144531.15625 7.414063 1.351563 2.269531 3.800781 3.65625 6.4375 3.65625h.011719l27.773437-.042969-19.058593 46.300781c-3.105469 7.546875 6.472656 13.941406 12.246093 8.148438l77.050781-77.304688c2.144532-2.144531 2.777344-5.371094 1.617188-8.171875-1.164062-2.796875-3.894531-4.621093-6.925781-4.621093h-29.542969l20.484375-31.097657c1.519531-2.304687 1.652344-5.253906.34375-7.683593zm-41.011719 42.15625c-1.519531 2.300781-1.648437 5.253906-.339844 7.683593 1.308594 2.425781 3.84375 3.941407 6.601563 3.941407h25.398437l-37.71875 37.84375 9-21.855469c.953126-2.316407.6875-4.953125-.707031-7.035157-1.394531-2.074218-3.730469-3.320312-6.230469-3.320312-.003906 0-.007812 0-.011718 0l-26.378906.039062 26.199218-48.394531h24.675782zm0 0"/><path fill="#434343" d="m166.976562 72.304688c6.621094 0 10.039063-8.0625 5.300782-12.800782l-22.902344-22.90625c-2.929688-2.925781-7.675781-2.925781-10.605469 0-2.929687 2.933594-2.929687 7.679688 0 10.609375 22.722657 21.695313 22.753907 25.097657 28.207031 25.097657zm0 0"/><path fill="#434343" d="m199.09375 40.5c1.5 3.871094 5.851562 5.777344 9.703125 4.285156 3.859375-1.496094 5.777344-5.84375 4.28125-9.703125l-11.542969-29.789062c-1.496094-3.863281-5.839844-5.785157-9.699218-4.285157-3.863282 1.496094-5.78125 5.839844-4.285157 9.703126zm0 0"/><path fill="#434343" d="m350.328125 70.109375 22.902344-22.902344c2.929687-2.929687 2.929687-7.675781 0-10.605469-2.929688-2.929687-7.675781-2.929687-10.605469 0l-22.902344 22.902344c-2.929687 2.929688-2.929687 7.675782 0 10.605469 2.929688 2.929687 7.675782 2.929687 10.605469 0zm0 0"/><path fill="#434343" d="m305.910156 45.292969c3.007813 0 5.847656-1.820313 6.996094-4.792969l11.542969-29.789062c1.496093-3.863282-.421875-8.207032-4.285157-9.703126-3.863281-1.496093-8.203124.421876-9.699218 4.285157l-11.542969 29.789062c-1.90625 4.917969 1.738281 10.210938 6.988281 10.210938zm0 0"/><path fill="#434343" d="m345.371094 415.445312h-7.808594c-4.140625 0-7.5 3.355469-7.5 7.5 0 4.140626 3.359375 7.5 7.5 7.5h7.808594c4.144531 0 7.5-3.359374 7.5-7.5 0-4.144531-3.355469-7.5-7.5-7.5zm0 0"/><path fill="#434343" d="m174.4375 415.445312h-7.808594c-4.144531 0-7.5 3.355469-7.5 7.5 0 4.140626 3.355469 7.5 7.5 7.5h7.808594c4.140625 0 7.5-3.359374 7.5-7.5 0-4.144531-3.359375-7.5-7.5-7.5zm0 0"/></svg>