<svg version="1.1" id="Capa_1" xmlns="http://www.w3.org/2000/svg" xmlns:xlink="http://www.w3.org/1999/xlink" x="0px" y="0px"
	 viewBox="0 0 512 512" style="enable-background:new 0 0 512 512;" xml:space="preserve">
<g>
	<g>
		<g>
			<path fill="#75675c" d="M256.9,299.763c1.424-1.759,2.09-4.012,1.853-6.262c-0.238-2.251-1.36-4.315-3.119-5.738
				c-11.853-9.576-27.616-12.804-42.278-8.657s-26.401,15.151-31.484,29.516c-1.017,2.874-0.423,6.073,1.558,8.391
				s5.048,3.403,8.046,2.846c2.998-0.557,5.471-2.67,6.487-5.545c4.234-11.927,15.514-19.9,28.171-19.913
				c6.834-0.029,13.467,2.314,18.767,6.629C248.564,303.991,253.935,303.424,256.9,299.763z"/>
			<path fill="#75675c" d="M358.4,345.6c-4.494,0-8.91,1.181-12.804,3.425c-2.642,1.523-4.271,4.341-4.272,7.392
				c-0.001,3.05,1.626,5.869,4.268,7.394c2.642,1.525,5.896,1.524,8.537-0.002c2.641-1.523,5.894-1.522,8.534,0.002
				c2.64,1.524,4.268,4.341,4.27,7.39c0,4.713,3.82,8.533,8.533,8.533S384,375.913,384,371.2
				C383.985,357.068,372.532,345.615,358.4,345.6z"/>
			<path fill="#75675c" d="M465.063,383.165c-7.92-4.573-17.678-4.576-25.6-0.007c-2.642,1.523-4.271,4.341-4.272,7.392
				c-0.001,3.05,1.626,5.869,4.268,7.394c2.642,1.525,5.896,1.524,8.537-0.002c2.641-1.523,5.894-1.522,8.534,0.002
				s4.268,4.341,4.27,7.39c0,4.713,3.82,8.533,8.533,8.533s8.533-3.821,8.533-8.533
				C477.863,396.188,472.983,387.738,465.063,383.165z"/>
			<path fill="#75675c" d="M121.158,346.196L121.158,346.196c-9.821-1.991-19.986,1.073-27.071,8.158c-7.086,7.086-10.149,17.251-8.158,27.071
				c0.934,4.619,5.436,7.605,10.054,6.671s7.605-5.436,6.671-10.054c-0.17-0.848-0.255-1.71-0.254-2.575
				c0.008-7.066,5.734-12.792,12.8-12.8c0.865,0,1.727,0.085,2.575,0.254c4.619,0.934,9.12-2.052,10.054-6.671
				C128.764,351.631,125.777,347.13,121.158,346.196z"/>
			<path fill="#75675c" d="M251.733,345.6c-5.326-0.004-10.615,0.899-15.638,2.671c-4.423,1.582-6.735,6.441-5.173,10.87
				c1.562,4.43,6.411,6.763,10.847,5.221c10.853-3.82,22.935-1.073,31.071,7.062c8.136,8.136,10.882,20.218,7.062,31.071
				c-1.03,2.879-0.44,6.088,1.545,8.413c1.985,2.325,5.062,3.41,8.067,2.845c3.004-0.565,5.477-2.695,6.48-5.583
				c5.064-14.366,2.845-30.295-5.952-42.731C281.247,353.005,266.965,345.609,251.733,345.6z"/>
			<path fill="#75675c" d="M464.688,346.938c-10.036-21.814-35.088-32.33-57.688-24.215c4.158-87.401,45.794-156.322,96.467-156.322
				c4.713,0,8.533-3.82,8.533-8.533s-3.82-8.533-8.533-8.533c-1.834,0-3.655,0.087-5.468,0.229l-0.003-0.229
				c-48.759,0.289-95.319,20.329-129.046,55.544C375.125,105.037,393.646,64,401.067,64c4.713,0,8.533-3.82,8.533-8.533
				s-3.82-8.533-8.533-8.533c-66.953,0-124.109,61.648-145.06,148.561c-20.939-86.909-78.106-148.561-145.073-148.561
				c-4.713,0-8.533,3.821-8.533,8.533S106.221,64,110.933,64c7.422,0,25.95,41.069,32.121,141.003
				c-33.753-35.2-80.292-55.274-129.058-55.67h-0.171c-0.331,0.046-0.659,0.112-0.982,0.199c-1.447-0.092-2.896-0.199-4.31-0.199
				c-4.713,0-8.533,3.82-8.533,8.533s3.82,8.533,8.533,8.533c1.538,0,3.075,0.071,4.738,0.225
				c44.869,3.816,82.618,62.67,90.512,140.402c-1.104,1.459-2.13,2.976-3.074,4.544c-17.2-1.312-33.104,9.191-38.65,25.525
				C27.502,338.187,0.042,366.493,0,401.067v55.467c0,4.713,3.82,8.533,8.533,8.533h494.933c4.713,0,8.533-3.82,8.533-8.533v-51.2
				C511.97,377.148,492.254,352.813,464.688,346.938z M445.732,175.312c-30.866,30.021-52.427,83.305-55.739,145.12
				c-7.576-5.533-16.645-8.652-26.022-8.949c-4.12-11.537-12.246-21.211-22.897-27.261
				C356.848,233.455,395.633,193.095,445.732,175.312z M377.8,67.017c-20.819,41.042-25.989,132.949-27.072,159.827
				c-11.139,15.728-19.792,33.076-25.656,51.435c-10.123-2.005-20.62-0.806-30.03,3.43c-7.413-11.912-17.774-21.709-30.082-28.446
				C269.709,158.511,316.98,82.656,377.8,67.017z M134.193,67.014c59.252,15.225,105.656,87.571,112.406,178.859
				c-23.152-6.133-47.834-1.591-67.285,12.383c-4.981-11.02-11.024-21.527-18.044-31.375
				C160.183,199.926,155.004,108.045,134.193,67.014z M66.468,175.526c45.055,16.034,81.179,50.45,99.375,94.675
				c-4.537,5.025-8.426,10.598-11.576,16.591c-12.01-2.402-24.484-0.238-34.984,6.068C112.018,242.766,92.472,200.89,66.468,175.526
				z M494.933,448H17.067v-46.933c0.029-25.908,21.025-46.904,46.933-46.933c1.338,0,2.654,0.1,3.963,0.208
				c4.529,0.39,8.565-2.848,9.167-7.354c0.69-6.063,4.006-11.517,9.071-14.92c5.065-3.403,11.368-4.412,17.242-2.759
				c4.139,1.063,8.427-1.096,10.037-5.054c5.177-12.899,17.689-21.343,31.587-21.321c3.792,0.051,7.547,0.743,11.108,2.046
				c4.287,1.489,8.989-0.639,10.7-4.842c9.556-23.523,32.126-39.163,57.507-39.848c25.381-0.685,48.762,13.715,59.572,36.689
				c1.069,2.259,3.074,3.936,5.487,4.588c2.413,0.652,4.99,0.213,7.051-1.2c9.485-6.502,21.611-7.779,32.242-3.394
				s18.331,13.838,20.475,25.136c0.845,4.454,5.028,7.469,9.521,6.862l0.946-0.133c0.989-0.171,1.989-0.273,2.992-0.304
				c10.673-0.008,20.518,5.749,25.746,15.054c1.313,2.274,3.599,3.817,6.198,4.184s5.224-0.483,7.114-2.305
				c7.308-7.114,17.761-9.97,27.671-7.561s17.885,9.745,21.112,19.42v0c1.058,3.092,3.789,5.309,7.033,5.708
				c21.345,2.658,37.373,20.79,37.392,42.3V448z"/>
		</g>
	</g>
</g>
</svg>
