<svg height="512" viewBox="0 0 128 128" width="512" xmlns="http://www.w3.org/2000/svg" xmlns:xlink="http://www.w3.org/1999/xlink">
	<path d="m51.229 29.379a1.75 1.75 0 0 1 .419-2.439c.18-.127.361-.251.543-.374a1.751 1.751 0 0 1 1.951 2.907c-.16.107-.317.215-.474.326a1.749 1.749 0 0 1 -2.439-.42zm38.925 6.271a26.592 26.592 0 0 0 -33.027-11.689 1.75 1.75 0 1 0 1.3 3.25 23.092 23.092 0 0 1 28.973 10.689 1.751 1.751 0 0 0 1 .844 29 29 0 0 1 14.814 43.893 1.75 1.75 0 0 0 2.886 1.979 32.5 32.5 0 0 0 -15.946-48.966zm9.659 51.081q-.353.354-.716.7a1.75 1.75 0 1 0 2.394 2.553q.407-.379.8-.775a1.75 1.75 0 0 0 -2.478-2.473zm-56.189 5.119a25.646 25.646 0 0 1 -5.671-50.133 1.75 1.75 0 1 0 -1.014-3.349 29.145 29.145 0 0 0 6.444 56.973h.122a1.75 1.75 0 0 0 .119-3.5zm-13.553-40.463a1.75 1.75 0 0 0 1.358 3.226c9.843-4.145 13.985-14.173 14.326-15.036a23.1 23.1 0 0 1 3.864-6.128 1.75 1.75 0 1 0 -2.632-2.306 26.533 26.533 0 0 0 -4.453 7.065c0 .01-.006.021-.01.031s-.01.017-.013.026c-.037.094-3.769 9.471-12.44 13.122zm66.247 33.334a1.75 1.75 0 1 0 -.636-3.442c-10.534 1.95-19.535 13.573-20.249 14.514a18.442 18.442 0 0 1 -26.45 1.946 1.75 1.75 0 0 0 -2.332 2.611 21.945 21.945 0 0 0 30.889-1.645c.564.037 1.131.064 1.721.064a32.419 32.419 0 0 0 17.294-4.978 1.75 1.75 0 0 0 -1.864-2.962 28.888 28.888 0 0 1 -14.191 4.4c3.2-3.512 9.329-9.307 15.818-10.508zm-3.638-17.86a1.75 1.75 0 0 0 2.443-.4 11.935 11.935 0 0 0 -19.372-13.943 1.75 1.75 0 0 0 2.841 2.045 8.434 8.434 0 0 1 13.69 9.855 1.751 1.751 0 0 0 .398 2.443zm-45.821 4.314a5.921 5.921 0 0 1 7.754 3.136 1.75 1.75 0 1 0 3.223-1.367 9.414 9.414 0 0 0 -17.336 7.356 1.75 1.75 0 1 0 3.222-1.366 5.916 5.916 0 0 1 3.135-7.755z" fill="#aea9a6"/>
</svg>