<svg id="Layer_1" height="512" viewBox="0 0 512 512" width="512" xmlns="http://www.w3.org/2000/svg" xmlns:xlink="http://www.w3.org/1999/xlink" data-name="Layer 1">
	<path d="m181.381 438.375h14.319a6 6 0 0 0 0-12h-14.319a6 6 0 1 0 0 12z" fill="#595f77"/>
	<path d="m216.9 438.375h63.719a6 6 0 0 0 0-12h-63.719a6 6 0 1 0 0 12z" fill="#595f77"/>
	<g>
		<path fill="#595f77" d="m342.846 131.855a86.846 86.846 0 1 0 -86.846 86.845 86.944 86.944 0 0 0 86.846-86.845zm-131.773 44.927a6 6 0 0 0 -8.485 0l-3.548 3.547a74.5 74.5 0 0 1 -17.624-42.474h5.048a6 6 0 1 0 0-12h-5.048a74.5 74.5 0 0 1 17.624-42.474l3.548 3.547a6 6 0 0 0 8.485-8.485l-3.548-3.543a74.5 74.5 0 0 1 42.475-17.629v5.048a6 6 0 1 0 12 0v-5.048a74.5 74.5 0 0 1 42.475 17.629l-3.548 3.548a6 6 0 1 0 8.485 8.485l3.548-3.547a74.5 74.5 0 0 1 17.624 42.474h-5.048a6 6 0 0 0 0 12h5.048a74.5 74.5 0 0 1 -17.624 42.474l-3.548-3.547a6 6 0 1 0 -8.485 8.485l3.547 3.547a74.626 74.626 0 0 1 -96.948 0l3.547-3.547a6 6 0 0 0 0-8.49z"/>
		<path fill="#595f77" d="m256 164.6a18.874 18.874 0 0 0 6-36.772v-26.935a6 6 0 0 0 -12 0v26.936a18.874 18.874 0 0 0 6 36.772zm0-25.766a6.883 6.883 0 1 1 -6.883 6.883 6.891 6.891 0 0 1 6.883-6.882z"/>
		<path fill="#595f77" d="m475 294.375h-44a16.019 16.019 0 0 0 -16 16v6h-81.5v-35a6 6 0 0 0 -6-6h-45.5v-36.4a110.23 110.23 0 1 0 -52 0v36.4h-45.5a6 6 0 0 0 -6 6v35h-81.5v-6a16.019 16.019 0 0 0 -16-16h-44a16.019 16.019 0 0 0 -16 16v164a16.019 16.019 0 0 0 16 16h44a16.019 16.019 0 0 0 16-16v-6h318v6a16.019 16.019 0 0 0 16 16h44a16.019 16.019 0 0 0 16-16v-164a16.019 16.019 0 0 0 -16-16zm-390 180a4 4 0 0 1 -4 4h-44a4 4 0 0 1 -4-4v-42h52zm0-54h-52v-56h52zm0-68h-52v-42a4 4 0 0 1 4-4h44a4 4 0 0 1 4 4zm216.5-65h20v29h-20zm-12 0v29h-27v-29zm-47.5-12v-34.175a111.177 111.177 0 0 0 28 0v34.176zm-84.23-143.52a98.23 98.23 0 1 1 98.23 98.229 98.342 98.342 0 0 1 -98.23-98.229zm64.73 155.52h28v29h-28zm-32 0h20v29h-20zm-52.5 169h-41v-128h41zm224 0h-212v-128h212zm53 0h-41v-128h41zm64 18a4 4 0 0 1 -4 4h-44a4 4 0 0 1 -4-4v-42h52zm0-54h-52v-56h52zm0-68h-52v-42a4 4 0 0 1 4-4h44a4 4 0 0 1 4 4z"/>
	</g>
</svg>